<svg xmlns="http://www.w3.org/2000/svg" xmlns:xlink="http://www.w3.org/1999/xlink" width="832" zoomAndPan="magnify" viewBox="0 0 624 436.499987" height="582" preserveAspectRatio="xMidYMid meet" version="1.0"><defs><g/><clipPath id="5bc78b01fc"><path d="M 53 170 L 574.660156 170 L 574.660156 288.417969 L 53 288.417969 Z M 53 170 " clip-rule="nonzero"/></clipPath></defs><path fill="#e32128" d="M 563.308594 165.835938 L 548.460938 188.46875 L 325.316406 33.164062 L 179.785156 134.464844 L 164.929688 111.824219 L 325.316406 0.195312 Z M 563.308594 165.835938 " fill-opacity="1" fill-rule="nonzero"/><path fill="#e32128" d="M 541.929688 198.433594 L 527.078125 221.066406 L 325.328125 80.636719 L 201.160156 167.054688 L 186.316406 144.421875 L 325.328125 47.667969 Z M 541.929688 198.433594 " fill-opacity="1" fill-rule="nonzero"/><path fill="#e32128" d="M 520.546875 231.027344 L 505.699219 253.667969 L 325.328125 128.121094 L 222.546875 199.652344 L 207.699219 177.019531 L 325.328125 95.152344 Z M 520.546875 231.027344 " fill-opacity="1" fill-rule="nonzero"/><path fill="#242424" d="M 106.976562 246.226562 C 126.695312 233.289062 131.472656 218.332031 154.738281 201.488281 L 176.101562 234.054688 L 214.292969 209 L 153.730469 116.671875 L 115.539062 141.722656 L 136.894531 174.285156 C 112.179688 188.929688 96.5625 187.351562 76.839844 200.277344 C 60.023438 211.3125 50.304688 240.386719 54.957031 247.488281 C 59.617188 254.589844 90.15625 257.261719 106.976562 246.226562 Z M 71.890625 223.738281 C 76.777344 220.535156 83.332031 221.894531 86.535156 226.78125 C 89.734375 231.660156 88.375 238.222656 83.488281 241.421875 C 78.605469 244.625 72.050781 243.257812 68.847656 238.378906 C 65.644531 233.492188 67.003906 226.9375 71.890625 223.738281 Z M 71.890625 223.738281 " fill-opacity="1" fill-rule="nonzero"/><path fill="#242424" d="M 293.378906 178.507812 L 320.441406 178.507812 L 320.441406 205.570312 L 293.378906 205.570312 Z M 293.378906 178.507812 " fill-opacity="1" fill-rule="nonzero"/><path fill="#242424" d="M 330.210938 178.507812 L 357.273438 178.507812 L 357.273438 205.570312 L 330.210938 205.570312 Z M 330.210938 178.507812 " fill-opacity="1" fill-rule="nonzero"/><path fill="#242424" d="M 293.378906 215.339844 L 320.441406 215.339844 L 320.441406 242.402344 L 293.378906 242.402344 Z M 293.378906 215.339844 " fill-opacity="1" fill-rule="nonzero"/><path fill="#242424" d="M 330.210938 215.339844 L 357.273438 215.339844 L 357.273438 242.402344 L 330.210938 242.402344 Z M 330.210938 215.339844 " fill-opacity="1" fill-rule="nonzero"/><g clip-path="url(#5bc78b01fc)"><path fill="#242424" d="M 506.203125 275.089844 L 53.792969 275.089844 L 53.792969 288.246094 L 574.730469 288.246094 L 574.730469 170.285156 Z M 506.203125 275.089844 " fill-opacity="1" fill-rule="nonzero"/></g><g fill="#242424" fill-opacity="1"><g transform="translate(47.742375, 364.824049)"><g><path d="M 31.8125 1.3125 C 26.945312 1.3125 22.609375 0.273438 18.796875 -1.796875 C 14.992188 -3.878906 11.976562 -6.75 9.75 -10.40625 C 7.53125 -14.070312 6.421875 -18.304688 6.421875 -23.109375 L 6.421875 -61.53125 L 19.78125 -61.53125 L 19.78125 -23.734375 C 19.78125 -19.921875 20.90625 -16.882812 23.15625 -14.625 C 25.414062 -12.375 28.300781 -11.25 31.8125 -11.25 C 35.382812 -11.25 38.300781 -12.375 40.5625 -14.625 C 42.820312 -16.882812 43.953125 -19.921875 43.953125 -23.734375 L 43.953125 -61.53125 L 57.21875 -61.53125 L 57.21875 -23.109375 C 57.21875 -18.304688 56.117188 -14.070312 53.921875 -10.40625 C 51.722656 -6.75 48.703125 -3.878906 44.859375 -1.796875 C 41.023438 0.273438 36.675781 1.3125 31.8125 1.3125 Z M 31.8125 1.3125 "/></g></g></g><g fill="#242424" fill-opacity="1"><g transform="translate(106.368461, 364.824049)"><g><path d="M 33.21875 -48.609375 C 38.613281 -48.609375 42.878906 -46.804688 46.015625 -43.203125 C 49.148438 -39.597656 50.71875 -34.773438 50.71875 -28.734375 L 50.71875 0 L 37.875 0 L 37.875 -26.71875 C 37.875 -33.8125 35.125 -37.359375 29.625 -37.359375 C 26.34375 -37.359375 23.75 -36.242188 21.84375 -34.015625 C 19.9375 -31.785156 18.984375 -28.769531 18.984375 -24.96875 L 18.984375 0 L 6.15625 0 L 6.15625 -47.46875 L 14.9375 -47.46875 L 17.484375 -41.578125 C 19.242188 -43.742188 21.5 -45.457031 24.25 -46.71875 C 27.007812 -47.976562 30 -48.609375 33.21875 -48.609375 Z M 33.21875 -48.609375 "/></g></g></g><g fill="#242424" fill-opacity="1"><g transform="translate(157.699227, 364.824049)"><g><path d="M 6.15625 -53.796875 L 6.15625 -65.75 L 18.984375 -65.75 L 18.984375 -53.796875 Z M 6.15625 0 L 6.15625 -47.46875 L 18.984375 -47.46875 L 18.984375 0 Z M 6.15625 0 "/></g></g></g><g fill="#242424" fill-opacity="1"><g transform="translate(177.827121, 364.824049)"><g><path d="M 29.359375 -11.421875 L 35.15625 -11.421875 L 35.15625 0 L 26.109375 0 C 20.890625 0 16.769531 -1.503906 13.75 -4.515625 C 10.738281 -7.535156 9.234375 -11.6875 9.234375 -16.96875 L 9.234375 -37.171875 L 0.609375 -37.171875 L 0.609375 -39.90625 L 19.421875 -59.859375 L 21.796875 -59.859375 L 21.796875 -47.46875 L 34.890625 -47.46875 L 34.890625 -37.171875 L 22.0625 -37.171875 L 22.0625 -18.640625 C 22.0625 -16.347656 22.691406 -14.570312 23.953125 -13.3125 C 25.210938 -12.050781 27.015625 -11.421875 29.359375 -11.421875 Z M 29.359375 -11.421875 "/></g></g></g><g fill="#242424" fill-opacity="1"><g transform="translate(210.611952, 364.824049)"><g><path d="M 52.203125 -23.90625 C 52.203125 -22.675781 52.113281 -21.414062 51.9375 -20.125 L 16.078125 -20.125 C 16.609375 -16.90625 17.898438 -14.429688 19.953125 -12.703125 C 22.003906 -10.972656 24.582031 -10.109375 27.6875 -10.109375 C 29.914062 -10.109375 31.90625 -10.59375 33.65625 -11.5625 C 35.414062 -12.53125 36.765625 -13.863281 37.703125 -15.5625 L 51.234375 -15.5625 C 49.484375 -10.40625 46.5 -6.300781 42.28125 -3.25 C 38.0625 -0.207031 33.195312 1.3125 27.6875 1.3125 C 23 1.3125 18.796875 0.210938 15.078125 -1.984375 C 11.359375 -4.179688 8.425781 -7.164062 6.28125 -10.9375 C 4.144531 -14.71875 3.078125 -18.984375 3.078125 -23.734375 C 3.078125 -28.472656 4.144531 -32.734375 6.28125 -36.515625 C 8.425781 -40.296875 11.359375 -43.285156 15.078125 -45.484375 C 18.796875 -47.679688 23 -48.78125 27.6875 -48.78125 C 32.550781 -48.78125 36.828125 -47.648438 40.515625 -45.390625 C 44.210938 -43.140625 47.082031 -40.140625 49.125 -36.390625 C 51.175781 -32.640625 52.203125 -28.476562 52.203125 -23.90625 Z M 27.6875 -37.875 C 24.8125 -37.875 22.390625 -37.082031 20.421875 -35.5 C 18.460938 -33.925781 17.132812 -31.734375 16.4375 -28.921875 L 39.375 -28.921875 C 37.5 -34.890625 33.601562 -37.875 27.6875 -37.875 Z M 27.6875 -37.875 "/></g></g></g><g fill="#242424" fill-opacity="1"><g transform="translate(260.800065, 364.824049)"><g><path d="M 41.046875 -64.59375 L 53.875 -64.59375 L 53.875 0 L 44.390625 0 L 42.890625 -3.953125 C 40.898438 -2.253906 38.644531 -0.9375 36.125 0 C 33.601562 0.9375 30.90625 1.40625 28.03125 1.40625 C 23.226562 1.40625 18.9375 0.304688 15.15625 -1.890625 C 11.382812 -4.085938 8.425781 -7.078125 6.28125 -10.859375 C 4.144531 -14.640625 3.078125 -18.929688 3.078125 -23.734375 C 3.078125 -28.535156 4.144531 -32.828125 6.28125 -36.609375 C 8.425781 -40.390625 11.382812 -43.363281 15.15625 -45.53125 C 18.9375 -47.695312 23.226562 -48.78125 28.03125 -48.78125 C 30.4375 -48.78125 32.738281 -48.441406 34.9375 -47.765625 C 37.132812 -47.097656 39.171875 -46.144531 41.046875 -44.90625 Z M 29 -10.71875 C 31.519531 -10.71875 33.742188 -11.289062 35.671875 -12.4375 C 37.609375 -13.582031 39.148438 -15.132812 40.296875 -17.09375 C 41.441406 -19.0625 42.015625 -21.273438 42.015625 -23.734375 C 42.015625 -26.191406 41.441406 -28.398438 40.296875 -30.359375 C 39.148438 -32.328125 37.609375 -33.878906 35.671875 -35.015625 C 33.742188 -36.160156 31.519531 -36.734375 29 -36.734375 C 26.539062 -36.734375 24.34375 -36.160156 22.40625 -35.015625 C 20.476562 -33.878906 18.941406 -32.328125 17.796875 -30.359375 C 16.648438 -28.398438 16.078125 -26.191406 16.078125 -23.734375 C 16.078125 -21.273438 16.648438 -19.0625 17.796875 -17.09375 C 18.941406 -15.132812 20.476562 -13.582031 22.40625 -12.4375 C 24.34375 -11.289062 26.539062 -10.71875 29 -10.71875 Z M 29 -10.71875 "/></g></g></g><g fill="#242424" fill-opacity="1"><g transform="translate(315.829799, 364.824049)"><g/></g></g><g fill="#242424" fill-opacity="1"><g transform="translate(317.702975, 364.824049)"><g><path d="M 35.765625 0.96875 C 31.203125 0.96875 27 0.191406 23.15625 -1.359375 C 19.320312 -2.910156 15.984375 -5.109375 13.140625 -7.953125 C 10.296875 -10.796875 8.097656 -14.148438 6.546875 -18.015625 C 4.992188 -21.878906 4.21875 -26.128906 4.21875 -30.765625 C 4.21875 -35.390625 4.992188 -39.632812 6.546875 -43.5 C 8.097656 -47.375 10.296875 -50.726562 13.140625 -53.5625 C 15.984375 -56.40625 19.320312 -58.601562 23.15625 -60.15625 C 27 -61.707031 31.203125 -62.484375 35.765625 -62.484375 C 40.515625 -62.484375 44.863281 -61.585938 48.8125 -59.796875 C 52.769531 -58.015625 56.140625 -55.5 58.921875 -52.25 C 61.710938 -49 63.691406 -45.144531 64.859375 -40.6875 L 57.046875 -40.6875 C 55.398438 -45.144531 52.703125 -48.632812 48.953125 -51.15625 C 45.203125 -53.675781 40.804688 -54.9375 35.765625 -54.9375 C 31.203125 -54.9375 27.128906 -53.910156 23.546875 -51.859375 C 19.972656 -49.804688 17.175781 -46.945312 15.15625 -43.28125 C 13.132812 -39.625 12.125 -35.453125 12.125 -30.765625 C 12.125 -26.015625 13.132812 -21.820312 15.15625 -18.1875 C 17.175781 -14.5625 19.972656 -11.722656 23.546875 -9.671875 C 27.128906 -7.617188 31.203125 -6.59375 35.765625 -6.59375 C 40.921875 -6.59375 45.40625 -7.925781 49.21875 -10.59375 C 53.03125 -13.257812 55.726562 -16.960938 57.3125 -21.703125 L 65.21875 -21.703125 C 64.039062 -17.078125 62.046875 -13.066406 59.234375 -9.671875 C 56.421875 -6.273438 53.007812 -3.648438 49 -1.796875 C 44.988281 0.046875 40.578125 0.96875 35.765625 0.96875 Z M 35.765625 0.96875 "/></g></g></g><g fill="#242424" fill-opacity="1"><g transform="translate(380.899631, 364.824049)"><g><path d="M 28.921875 1.0625 C 24.109375 1.0625 19.8125 -0.0195312 16.03125 -2.1875 C 12.257812 -4.363281 9.273438 -7.3125 7.078125 -11.03125 C 4.878906 -14.75 3.78125 -18.984375 3.78125 -23.734375 C 3.78125 -28.472656 4.878906 -32.71875 7.078125 -36.46875 C 9.273438 -40.21875 12.257812 -43.160156 16.03125 -45.296875 C 19.8125 -47.441406 24.109375 -48.515625 28.921875 -48.515625 C 33.722656 -48.515625 38.023438 -47.429688 41.828125 -45.265625 C 45.640625 -43.097656 48.644531 -40.148438 50.84375 -36.421875 C 53.039062 -32.703125 54.140625 -28.472656 54.140625 -23.734375 C 54.140625 -18.984375 53.039062 -14.75 50.84375 -11.03125 C 48.644531 -7.3125 45.640625 -4.363281 41.828125 -2.1875 C 38.023438 -0.0195312 33.722656 1.0625 28.921875 1.0625 Z M 28.921875 -6.15625 C 32.316406 -6.15625 35.332031 -6.914062 37.96875 -8.4375 C 40.601562 -9.957031 42.679688 -12.035156 44.203125 -14.671875 C 45.734375 -17.316406 46.5 -20.335938 46.5 -23.734375 C 46.5 -27.128906 45.734375 -30.144531 44.203125 -32.78125 C 42.679688 -35.414062 40.601562 -37.492188 37.96875 -39.015625 C 35.332031 -40.546875 32.316406 -41.3125 28.921875 -41.3125 C 25.515625 -41.3125 22.492188 -40.546875 19.859375 -39.015625 C 17.222656 -37.492188 15.15625 -35.414062 13.65625 -32.78125 C 12.164062 -30.144531 11.421875 -27.128906 11.421875 -23.734375 C 11.421875 -20.335938 12.164062 -17.316406 13.65625 -14.671875 C 15.15625 -12.035156 17.238281 -9.957031 19.90625 -8.4375 C 22.570312 -6.914062 25.578125 -6.15625 28.921875 -6.15625 Z M 28.921875 -6.15625 "/></g></g></g><g fill="#242424" fill-opacity="1"><g transform="translate(433.812515, 364.824049)"><g><path d="M 7.5625 0 L 7.5625 -64.421875 L 15.03125 -64.421875 L 15.03125 0 Z M 7.5625 0 "/></g></g></g><g fill="#242424" fill-opacity="1"><g transform="translate(451.303541, 364.824049)"><g><path d="M 28.921875 1.0625 C 24.109375 1.0625 19.8125 -0.0195312 16.03125 -2.1875 C 12.257812 -4.363281 9.273438 -7.3125 7.078125 -11.03125 C 4.878906 -14.75 3.78125 -18.984375 3.78125 -23.734375 C 3.78125 -28.472656 4.878906 -32.71875 7.078125 -36.46875 C 9.273438 -40.21875 12.257812 -43.160156 16.03125 -45.296875 C 19.8125 -47.441406 24.109375 -48.515625 28.921875 -48.515625 C 33.722656 -48.515625 38.023438 -47.429688 41.828125 -45.265625 C 45.640625 -43.097656 48.644531 -40.148438 50.84375 -36.421875 C 53.039062 -32.703125 54.140625 -28.472656 54.140625 -23.734375 C 54.140625 -18.984375 53.039062 -14.75 50.84375 -11.03125 C 48.644531 -7.3125 45.640625 -4.363281 41.828125 -2.1875 C 38.023438 -0.0195312 33.722656 1.0625 28.921875 1.0625 Z M 28.921875 -6.15625 C 32.316406 -6.15625 35.332031 -6.914062 37.96875 -8.4375 C 40.601562 -9.957031 42.679688 -12.035156 44.203125 -14.671875 C 45.734375 -17.316406 46.5 -20.335938 46.5 -23.734375 C 46.5 -27.128906 45.734375 -30.144531 44.203125 -32.78125 C 42.679688 -35.414062 40.601562 -37.492188 37.96875 -39.015625 C 35.332031 -40.546875 32.316406 -41.3125 28.921875 -41.3125 C 25.515625 -41.3125 22.492188 -40.546875 19.859375 -39.015625 C 17.222656 -37.492188 15.15625 -35.414062 13.65625 -32.78125 C 12.164062 -30.144531 11.421875 -27.128906 11.421875 -23.734375 C 11.421875 -20.335938 12.164062 -17.316406 13.65625 -14.671875 C 15.15625 -12.035156 17.238281 -9.957031 19.90625 -8.4375 C 22.570312 -6.914062 25.578125 -6.15625 28.921875 -6.15625 Z M 28.921875 -6.15625 "/></g></g></g><g fill="#242424" fill-opacity="1"><g transform="translate(504.216426, 364.824049)"><g><path d="M 29.1875 -47.71875 L 33.40625 -47.71875 L 33.40625 -40.609375 L 28.5625 -40.609375 C 24.226562 -40.609375 20.890625 -39.289062 18.546875 -36.65625 C 16.203125 -34.019531 15.03125 -30.382812 15.03125 -25.75 L 15.03125 0 L 7.5625 0 L 7.5625 -47.46875 L 12.828125 -47.46875 L 14.0625 -40.25 C 15.757812 -42.65625 17.851562 -44.5 20.34375 -45.78125 C 22.832031 -47.070312 25.78125 -47.71875 29.1875 -47.71875 Z M 29.1875 -47.71875 "/></g></g></g><g fill="#242424" fill-opacity="1"><g transform="translate(533.133854, 364.824049)"><g><path d="M 22.59375 1.0625 C 16.90625 1.0625 12.363281 -0.34375 8.96875 -3.15625 C 5.570312 -5.976562 3.785156 -9.789062 3.609375 -14.59375 L 10.90625 -14.59375 C 11.070312 -11.71875 12.269531 -9.546875 14.5 -8.078125 C 16.726562 -6.617188 19.484375 -5.890625 22.765625 -5.890625 C 26.046875 -5.890625 28.722656 -6.53125 30.796875 -7.8125 C 32.878906 -9.101562 33.921875 -10.921875 33.921875 -13.265625 C 33.921875 -15.085938 33.347656 -16.492188 32.203125 -17.484375 C 31.066406 -18.484375 29.5625 -19.234375 27.6875 -19.734375 C 25.8125 -20.234375 23.789062 -20.65625 21.625 -21 C 19.632812 -21.351562 17.625 -21.78125 15.59375 -22.28125 C 13.570312 -22.78125 11.710938 -23.484375 10.015625 -24.390625 C 8.316406 -25.296875 6.96875 -26.582031 5.96875 -28.25 C 4.976562 -29.925781 4.484375 -32.113281 4.484375 -34.8125 C 4.484375 -38.851562 6.125 -42.144531 9.40625 -44.6875 C 12.6875 -47.238281 16.992188 -48.515625 22.328125 -48.515625 C 27.710938 -48.515625 32.015625 -47.179688 35.234375 -44.515625 C 38.460938 -41.847656 40.132812 -38.289062 40.25 -33.84375 L 33.21875 -33.84375 C 33.039062 -36.414062 31.984375 -38.390625 30.046875 -39.765625 C 28.117188 -41.148438 25.515625 -41.84375 22.234375 -41.84375 C 19.015625 -41.84375 16.453125 -41.210938 14.546875 -39.953125 C 12.640625 -38.691406 11.6875 -37.035156 11.6875 -34.984375 C 11.6875 -33.335938 12.226562 -32.078125 13.3125 -31.203125 C 14.394531 -30.328125 15.828125 -29.664062 17.609375 -29.21875 C 19.398438 -28.78125 21.351562 -28.382812 23.46875 -28.03125 C 25.519531 -27.738281 27.597656 -27.34375 29.703125 -26.84375 C 31.816406 -26.351562 33.75 -25.625 35.5 -24.65625 C 37.257812 -23.6875 38.664062 -22.320312 39.71875 -20.5625 C 40.78125 -18.8125 41.3125 -16.5 41.3125 -13.625 C 41.3125 -9.164062 39.597656 -5.601562 36.171875 -2.9375 C 32.742188 -0.269531 28.21875 1.0625 22.59375 1.0625 Z M 22.59375 1.0625 "/></g></g></g><g fill="#272727" fill-opacity="1"><g transform="translate(52.044101, 397.029131)"><g><path d="M 8.484375 -15.8125 C 10.503906 -15.8125 12.085938 -15.328125 13.234375 -14.359375 C 14.378906 -13.398438 14.953125 -12.078125 14.953125 -10.390625 C 14.953125 -8.703125 14.378906 -7.378906 13.234375 -6.421875 C 12.085938 -5.460938 10.503906 -4.984375 8.484375 -4.984375 L 4.25 -4.984375 L 4.25 0 L 2.578125 0 L 2.578125 -15.8125 Z M 8.4375 -6.453125 C 10.007812 -6.453125 11.207031 -6.796875 12.03125 -7.484375 C 12.863281 -8.171875 13.28125 -9.140625 13.28125 -10.390625 C 13.28125 -11.671875 12.863281 -12.648438 12.03125 -13.328125 C 11.207031 -14.015625 10.007812 -14.359375 8.4375 -14.359375 L 4.25 -14.359375 L 4.25 -6.453125 Z M 8.4375 -6.453125 "/></g></g></g><g fill="#272727" fill-opacity="1"><g transform="translate(79.015656, 397.029131)"><g><path d="M 12.484375 -4.21875 L 3.6875 -4.21875 L 1.78125 0 L 0.046875 0 L 7.265625 -15.8125 L 8.921875 -15.8125 L 16.140625 0 L 14.375 0 Z M 11.875 -5.578125 L 8.078125 -14.0625 L 4.296875 -5.578125 Z M 11.875 -5.578125 "/></g></g></g><g fill="#272727" fill-opacity="1"><g transform="translate(105.964634, 397.029131)"><g><path d="M 2.578125 -15.8125 L 4.25 -15.8125 L 4.25 0 L 2.578125 0 Z M 2.578125 -15.8125 "/></g></g></g><g fill="#272727" fill-opacity="1"><g transform="translate(123.547971, 397.029131)"><g><path d="M 15.78125 -15.8125 L 15.78125 0 L 14.40625 0 L 4.25 -12.828125 L 4.25 0 L 2.578125 0 L 2.578125 -15.8125 L 3.953125 -15.8125 L 14.140625 -2.984375 L 14.140625 -15.8125 Z M 15.78125 -15.8125 "/></g></g></g><g fill="#272727" fill-opacity="1"><g transform="translate(152.663464, 397.029131)"><g><path d="M 5.640625 -14.359375 L 0.09375 -14.359375 L 0.09375 -15.8125 L 12.875 -15.8125 L 12.875 -14.359375 L 7.3125 -14.359375 L 7.3125 0 L 5.640625 0 Z M 5.640625 -14.359375 "/></g></g></g><g fill="#272727" fill-opacity="1"><g transform="translate(176.38524, 397.029131)"><g><path d="M 13.75 -1.4375 L 13.75 0 L 2.578125 0 L 2.578125 -15.8125 L 13.40625 -15.8125 L 13.40625 -14.359375 L 4.25 -14.359375 L 4.25 -8.734375 L 12.421875 -8.734375 L 12.421875 -7.3125 L 4.25 -7.3125 L 4.25 -1.4375 Z M 13.75 -1.4375 "/></g></g></g><g fill="#272727" fill-opacity="1"><g transform="translate(202.250969, 397.029131)"><g><path d="M 13.359375 0 L 9.75 -5.078125 C 9.34375 -5.035156 8.921875 -5.015625 8.484375 -5.015625 L 4.25 -5.015625 L 4.25 0 L 2.578125 0 L 2.578125 -15.8125 L 8.484375 -15.8125 C 10.503906 -15.8125 12.085938 -15.328125 13.234375 -14.359375 C 14.378906 -13.398438 14.953125 -12.078125 14.953125 -10.390625 C 14.953125 -9.148438 14.640625 -8.101562 14.015625 -7.25 C 13.390625 -6.40625 12.492188 -5.796875 11.328125 -5.421875 L 15.1875 0 Z M 8.4375 -6.4375 C 10.007812 -6.4375 11.207031 -6.78125 12.03125 -7.46875 C 12.863281 -8.164062 13.28125 -9.140625 13.28125 -10.390625 C 13.28125 -11.671875 12.863281 -12.648438 12.03125 -13.328125 C 11.207031 -14.015625 10.007812 -14.359375 8.4375 -14.359375 L 4.25 -14.359375 L 4.25 -6.4375 Z M 8.4375 -6.4375 "/></g></g></g><g fill="#272727" fill-opacity="1"><g transform="translate(229.335356, 397.029131)"><g><path d="M 6.9375 0.140625 C 5.757812 0.140625 4.628906 -0.046875 3.546875 -0.421875 C 2.472656 -0.804688 1.644531 -1.304688 1.0625 -1.921875 L 1.71875 -3.203125 C 2.289062 -2.628906 3.050781 -2.164062 4 -1.8125 C 4.945312 -1.457031 5.925781 -1.28125 6.9375 -1.28125 C 8.34375 -1.28125 9.398438 -1.539062 10.109375 -2.0625 C 10.816406 -2.582031 11.171875 -3.257812 11.171875 -4.09375 C 11.171875 -4.71875 10.976562 -5.21875 10.59375 -5.59375 C 10.21875 -5.96875 9.75 -6.257812 9.1875 -6.46875 C 8.632812 -6.675781 7.859375 -6.898438 6.859375 -7.140625 C 5.671875 -7.441406 4.722656 -7.726562 4.015625 -8 C 3.304688 -8.28125 2.695312 -8.707031 2.1875 -9.28125 C 1.6875 -9.851562 1.4375 -10.628906 1.4375 -11.609375 C 1.4375 -12.398438 1.644531 -13.125 2.0625 -13.78125 C 2.488281 -14.4375 3.140625 -14.957031 4.015625 -15.34375 C 4.890625 -15.738281 5.972656 -15.9375 7.265625 -15.9375 C 8.171875 -15.9375 9.054688 -15.8125 9.921875 -15.5625 C 10.785156 -15.3125 11.535156 -14.972656 12.171875 -14.546875 L 11.609375 -13.203125 C 10.941406 -13.640625 10.234375 -13.96875 9.484375 -14.1875 C 8.734375 -14.40625 7.992188 -14.515625 7.265625 -14.515625 C 5.878906 -14.515625 4.835938 -14.25 4.140625 -13.71875 C 3.441406 -13.1875 3.09375 -12.5 3.09375 -11.65625 C 3.09375 -11.019531 3.285156 -10.507812 3.671875 -10.125 C 4.054688 -9.738281 4.535156 -9.441406 5.109375 -9.234375 C 5.691406 -9.035156 6.472656 -8.816406 7.453125 -8.578125 C 8.609375 -8.296875 9.539062 -8.015625 10.25 -7.734375 C 10.96875 -7.453125 11.578125 -7.03125 12.078125 -6.46875 C 12.578125 -5.90625 12.828125 -5.140625 12.828125 -4.171875 C 12.828125 -3.378906 12.609375 -2.65625 12.171875 -2 C 11.742188 -1.34375 11.085938 -0.820312 10.203125 -0.4375 C 9.316406 -0.0507812 8.226562 0.140625 6.9375 0.140625 Z M 6.9375 0.140625 "/></g></g></g><g fill="#272727" fill-opacity="1"><g transform="translate(253.982426, 397.029131)"><g/></g></g><g fill="#272727" fill-opacity="1"><g transform="translate(270.663063, 397.029131)"><g><path d="M 13.890625 0.25 L 11.703125 -2.015625 C 10.359375 -0.578125 8.59375 0.140625 6.40625 0.140625 C 5.382812 0.140625 4.472656 -0.0234375 3.671875 -0.359375 C 2.867188 -0.703125 2.238281 -1.175781 1.78125 -1.78125 C 1.332031 -2.394531 1.109375 -3.097656 1.109375 -3.890625 C 1.109375 -4.835938 1.40625 -5.6875 2 -6.4375 C 2.601562 -7.1875 3.628906 -7.976562 5.078125 -8.8125 C 4.328125 -9.59375 3.804688 -10.253906 3.515625 -10.796875 C 3.234375 -11.347656 3.09375 -11.929688 3.09375 -12.546875 C 3.09375 -13.554688 3.453125 -14.367188 4.171875 -14.984375 C 4.898438 -15.609375 5.875 -15.921875 7.09375 -15.921875 C 8.21875 -15.921875 9.109375 -15.640625 9.765625 -15.078125 C 10.429688 -14.523438 10.765625 -13.757812 10.765625 -12.78125 C 10.765625 -12 10.5 -11.296875 9.96875 -10.671875 C 9.445312 -10.046875 8.539062 -9.359375 7.25 -8.609375 L 11.578125 -4.125 C 12.066406 -4.988281 12.421875 -6.007812 12.640625 -7.1875 L 13.953125 -6.78125 C 13.671875 -5.363281 13.203125 -4.148438 12.546875 -3.140625 L 14.8125 -0.8125 Z M 7.09375 -14.71875 C 6.3125 -14.71875 5.695312 -14.519531 5.25 -14.125 C 4.800781 -13.738281 4.578125 -13.222656 4.578125 -12.578125 C 4.578125 -12.109375 4.695312 -11.660156 4.9375 -11.234375 C 5.1875 -10.816406 5.660156 -10.25 6.359375 -9.53125 C 7.503906 -10.1875 8.296875 -10.75 8.734375 -11.21875 C 9.171875 -11.6875 9.390625 -12.195312 9.390625 -12.75 C 9.390625 -13.351562 9.1875 -13.832031 8.78125 -14.1875 C 8.375 -14.539062 7.8125 -14.71875 7.09375 -14.71875 Z M 6.5 -1.203125 C 8.25 -1.203125 9.664062 -1.796875 10.75 -2.984375 L 5.984375 -7.875 C 4.734375 -7.164062 3.867188 -6.523438 3.390625 -5.953125 C 2.921875 -5.390625 2.6875 -4.753906 2.6875 -4.046875 C 2.6875 -3.179688 3.035156 -2.488281 3.734375 -1.96875 C 4.429688 -1.457031 5.351562 -1.203125 6.5 -1.203125 Z M 6.5 -1.203125 "/></g></g></g><g fill="#272727" fill-opacity="1"><g transform="translate(296.528803, 397.029131)"><g/></g></g><g fill="#272727" fill-opacity="1"><g transform="translate(313.20944, 397.029131)"><g><path d="M 13.359375 0 L 9.75 -5.078125 C 9.34375 -5.035156 8.921875 -5.015625 8.484375 -5.015625 L 4.25 -5.015625 L 4.25 0 L 2.578125 0 L 2.578125 -15.8125 L 8.484375 -15.8125 C 10.503906 -15.8125 12.085938 -15.328125 13.234375 -14.359375 C 14.378906 -13.398438 14.953125 -12.078125 14.953125 -10.390625 C 14.953125 -9.148438 14.640625 -8.101562 14.015625 -7.25 C 13.390625 -6.40625 12.492188 -5.796875 11.328125 -5.421875 L 15.1875 0 Z M 8.4375 -6.4375 C 10.007812 -6.4375 11.207031 -6.78125 12.03125 -7.46875 C 12.863281 -8.164062 13.28125 -9.140625 13.28125 -10.390625 C 13.28125 -11.671875 12.863281 -12.648438 12.03125 -13.328125 C 11.207031 -14.015625 10.007812 -14.359375 8.4375 -14.359375 L 4.25 -14.359375 L 4.25 -6.4375 Z M 8.4375 -6.4375 "/></g></g></g><g fill="#272727" fill-opacity="1"><g transform="translate(340.293839, 397.029131)"><g><path d="M 13.75 -1.4375 L 13.75 0 L 2.578125 0 L 2.578125 -15.8125 L 13.40625 -15.8125 L 13.40625 -14.359375 L 4.25 -14.359375 L 4.25 -8.734375 L 12.421875 -8.734375 L 12.421875 -7.3125 L 4.25 -7.3125 L 4.25 -1.4375 Z M 13.75 -1.4375 "/></g></g></g><g fill="#272727" fill-opacity="1"><g transform="translate(366.159579, 397.029131)"><g><path d="M 18.984375 -15.8125 L 18.984375 0 L 17.390625 0 L 17.390625 -12.640625 L 11.171875 -2.015625 L 10.390625 -2.015625 L 4.171875 -12.578125 L 4.171875 0 L 2.578125 0 L 2.578125 -15.8125 L 3.953125 -15.8125 L 10.8125 -4.09375 L 17.609375 -15.8125 Z M 18.984375 -15.8125 "/></g></g></g><g fill="#272727" fill-opacity="1"><g transform="translate(398.479717, 397.029131)"><g><path d="M 9.484375 0.140625 C 7.921875 0.140625 6.5 -0.207031 5.21875 -0.90625 C 3.945312 -1.613281 2.953125 -2.578125 2.234375 -3.796875 C 1.523438 -5.015625 1.171875 -6.382812 1.171875 -7.90625 C 1.171875 -9.425781 1.523438 -10.796875 2.234375 -12.015625 C 2.953125 -13.234375 3.945312 -14.191406 5.21875 -14.890625 C 6.5 -15.585938 7.921875 -15.9375 9.484375 -15.9375 C 11.046875 -15.9375 12.457031 -15.585938 13.71875 -14.890625 C 14.976562 -14.203125 15.96875 -13.242188 16.6875 -12.015625 C 17.40625 -10.796875 17.765625 -9.425781 17.765625 -7.90625 C 17.765625 -6.382812 17.40625 -5.007812 16.6875 -3.78125 C 15.96875 -2.550781 14.976562 -1.585938 13.71875 -0.890625 C 12.457031 -0.203125 11.046875 0.140625 9.484375 0.140625 Z M 9.484375 -1.359375 C 10.734375 -1.359375 11.859375 -1.640625 12.859375 -2.203125 C 13.867188 -2.765625 14.660156 -3.546875 15.234375 -4.546875 C 15.804688 -5.546875 16.09375 -6.664062 16.09375 -7.90625 C 16.09375 -9.132812 15.804688 -10.25 15.234375 -11.25 C 14.660156 -12.25 13.867188 -13.03125 12.859375 -13.59375 C 11.859375 -14.164062 10.734375 -14.453125 9.484375 -14.453125 C 8.234375 -14.453125 7.097656 -14.164062 6.078125 -13.59375 C 5.066406 -13.03125 4.269531 -12.25 3.6875 -11.25 C 3.113281 -10.25 2.828125 -9.132812 2.828125 -7.90625 C 2.828125 -6.664062 3.113281 -5.546875 3.6875 -4.546875 C 4.269531 -3.546875 5.066406 -2.765625 6.078125 -2.203125 C 7.097656 -1.640625 8.234375 -1.359375 9.484375 -1.359375 Z M 9.484375 -1.359375 "/></g></g></g><g fill="#272727" fill-opacity="1"><g transform="translate(428.181974, 397.029131)"><g><path d="M 2.578125 -15.8125 L 9.015625 -15.8125 C 10.679688 -15.8125 12.15625 -15.472656 13.4375 -14.796875 C 14.71875 -14.128906 15.707031 -13.195312 16.40625 -12 C 17.113281 -10.800781 17.46875 -9.4375 17.46875 -7.90625 C 17.46875 -6.363281 17.113281 -4.992188 16.40625 -3.796875 C 15.707031 -2.609375 14.71875 -1.675781 13.4375 -1 C 12.15625 -0.332031 10.679688 0 9.015625 0 L 2.578125 0 Z M 8.921875 -1.4375 C 10.304688 -1.4375 11.515625 -1.710938 12.546875 -2.265625 C 13.585938 -2.816406 14.394531 -3.578125 14.96875 -4.546875 C 15.539062 -5.515625 15.828125 -6.632812 15.828125 -7.90625 C 15.828125 -9.164062 15.539062 -10.28125 14.96875 -11.25 C 14.394531 -12.226562 13.585938 -12.988281 12.546875 -13.53125 C 11.515625 -14.082031 10.304688 -14.359375 8.921875 -14.359375 L 4.25 -14.359375 L 4.25 -1.4375 Z M 8.921875 -1.4375 "/></g></g></g><g fill="#272727" fill-opacity="1"><g transform="translate(457.590866, 397.029131)"><g><path d="M 13.75 -1.4375 L 13.75 0 L 2.578125 0 L 2.578125 -15.8125 L 13.40625 -15.8125 L 13.40625 -14.359375 L 4.25 -14.359375 L 4.25 -8.734375 L 12.421875 -8.734375 L 12.421875 -7.3125 L 4.25 -7.3125 L 4.25 -1.4375 Z M 13.75 -1.4375 "/></g></g></g><g fill="#272727" fill-opacity="1"><g transform="translate(483.456606, 397.029131)"><g><path d="M 2.578125 -15.8125 L 4.25 -15.8125 L 4.25 -1.4375 L 13.09375 -1.4375 L 13.09375 0 L 2.578125 0 Z M 2.578125 -15.8125 "/></g></g></g><g fill="#272727" fill-opacity="1"><g transform="translate(507.516888, 397.029131)"><g><path d="M 13.75 -1.4375 L 13.75 0 L 2.578125 0 L 2.578125 -15.8125 L 13.40625 -15.8125 L 13.40625 -14.359375 L 4.25 -14.359375 L 4.25 -8.734375 L 12.421875 -8.734375 L 12.421875 -7.3125 L 4.25 -7.3125 L 4.25 -1.4375 Z M 13.75 -1.4375 "/></g></g></g><g fill="#272727" fill-opacity="1"><g transform="translate(533.382629, 397.029131)"><g><path d="M 13.359375 0 L 9.75 -5.078125 C 9.34375 -5.035156 8.921875 -5.015625 8.484375 -5.015625 L 4.25 -5.015625 L 4.25 0 L 2.578125 0 L 2.578125 -15.8125 L 8.484375 -15.8125 C 10.503906 -15.8125 12.085938 -15.328125 13.234375 -14.359375 C 14.378906 -13.398438 14.953125 -12.078125 14.953125 -10.390625 C 14.953125 -9.148438 14.640625 -8.101562 14.015625 -7.25 C 13.390625 -6.40625 12.492188 -5.796875 11.328125 -5.421875 L 15.1875 0 Z M 8.4375 -6.4375 C 10.007812 -6.4375 11.207031 -6.78125 12.03125 -7.46875 C 12.863281 -8.164062 13.28125 -9.140625 13.28125 -10.390625 C 13.28125 -11.671875 12.863281 -12.648438 12.03125 -13.328125 C 11.207031 -14.015625 10.007812 -14.359375 8.4375 -14.359375 L 4.25 -14.359375 L 4.25 -6.4375 Z M 8.4375 -6.4375 "/></g></g></g><g fill="#272727" fill-opacity="1"><g transform="translate(560.467005, 397.029131)"><g><path d="M 6.9375 0.140625 C 5.757812 0.140625 4.628906 -0.046875 3.546875 -0.421875 C 2.472656 -0.804688 1.644531 -1.304688 1.0625 -1.921875 L 1.71875 -3.203125 C 2.289062 -2.628906 3.050781 -2.164062 4 -1.8125 C 4.945312 -1.457031 5.925781 -1.28125 6.9375 -1.28125 C 8.34375 -1.28125 9.398438 -1.539062 10.109375 -2.0625 C 10.816406 -2.582031 11.171875 -3.257812 11.171875 -4.09375 C 11.171875 -4.71875 10.976562 -5.21875 10.59375 -5.59375 C 10.21875 -5.96875 9.75 -6.257812 9.1875 -6.46875 C 8.632812 -6.675781 7.859375 -6.898438 6.859375 -7.140625 C 5.671875 -7.441406 4.722656 -7.726562 4.015625 -8 C 3.304688 -8.28125 2.695312 -8.707031 2.1875 -9.28125 C 1.6875 -9.851562 1.4375 -10.628906 1.4375 -11.609375 C 1.4375 -12.398438 1.644531 -13.125 2.0625 -13.78125 C 2.488281 -14.4375 3.140625 -14.957031 4.015625 -15.34375 C 4.890625 -15.738281 5.972656 -15.9375 7.265625 -15.9375 C 8.171875 -15.9375 9.054688 -15.8125 9.921875 -15.5625 C 10.785156 -15.3125 11.535156 -14.972656 12.171875 -14.546875 L 11.609375 -13.203125 C 10.941406 -13.640625 10.234375 -13.96875 9.484375 -14.1875 C 8.734375 -14.40625 7.992188 -14.515625 7.265625 -14.515625 C 5.878906 -14.515625 4.835938 -14.25 4.140625 -13.71875 C 3.441406 -13.1875 3.09375 -12.5 3.09375 -11.65625 C 3.09375 -11.019531 3.285156 -10.507812 3.671875 -10.125 C 4.054688 -9.738281 4.535156 -9.441406 5.109375 -9.234375 C 5.691406 -9.035156 6.472656 -8.816406 7.453125 -8.578125 C 8.609375 -8.296875 9.539062 -8.015625 10.25 -7.734375 C 10.96875 -7.453125 11.578125 -7.03125 12.078125 -6.46875 C 12.578125 -5.90625 12.828125 -5.140625 12.828125 -4.171875 C 12.828125 -3.378906 12.609375 -2.65625 12.171875 -2 C 11.742188 -1.34375 11.085938 -0.820312 10.203125 -0.4375 C 9.316406 -0.0507812 8.226562 0.140625 6.9375 0.140625 Z M 6.9375 0.140625 "/></g></g></g></svg>