<svg xmlns="http://www.w3.org/2000/svg" xmlns:xlink="http://www.w3.org/1999/xlink" width="700" zoomAndPan="magnify" viewBox="0 0 525 288.749989" height="385" preserveAspectRatio="xMidYMid meet" version="1.0"><defs><clipPath id="6f96297505"><path d="M 3 170 L 524.773438 170 L 524.773438 288.5 L 3 288.5 Z M 3 170 " clip-rule="nonzero"/></clipPath><clipPath id="8491268a71"><path d="M 0.226562 269 L 524.773438 269 L 524.773438 277 L 0.226562 277 Z M 0.226562 269 " clip-rule="nonzero"/></clipPath></defs><path fill="#e32128" d="M 513.417969 165.882812 L 498.570312 188.523438 L 275.363281 33.171875 L 129.789062 134.5 L 114.929688 111.855469 L 275.363281 0.195312 Z M 513.417969 165.882812 " fill-opacity="1" fill-rule="nonzero"/><path fill="#e32128" d="M 492.035156 198.492188 L 477.179688 221.128906 L 275.371094 80.660156 L 151.171875 167.101562 L 136.320312 144.464844 L 275.371094 47.683594 Z M 492.035156 198.492188 " fill-opacity="1" fill-rule="nonzero"/><path fill="#e32128" d="M 470.644531 231.09375 L 455.792969 253.738281 L 275.371094 128.15625 L 172.5625 199.710938 L 157.710938 177.070312 L 275.371094 95.179688 Z M 470.644531 231.09375 " fill-opacity="1" fill-rule="nonzero"/><path fill="#272727" d="M 56.960938 246.296875 C 76.683594 233.355469 81.464844 218.394531 104.734375 201.542969 L 126.105469 234.117188 L 164.308594 209.058594 L 103.726562 116.703125 L 65.523438 141.761719 L 86.886719 174.332031 C 86.886719 174.332031 86.886719 174.335938 86.886719 174.335938 C 62.167969 188.980469 46.542969 187.402344 26.8125 200.335938 C 9.992188 211.371094 0.269531 240.453125 4.925781 247.558594 C 9.585938 254.664062 40.136719 257.332031 56.960938 246.296875 Z M 21.863281 223.800781 C 26.75 220.597656 33.308594 221.957031 36.511719 226.84375 C 39.714844 231.722656 38.351562 238.289062 33.464844 241.492188 C 28.578125 244.695312 22.023438 243.324219 18.820312 238.445312 C 15.617188 233.558594 16.976562 227.003906 21.863281 223.800781 Z M 21.863281 223.800781 " fill-opacity="1" fill-rule="nonzero"/><path fill="#272727" d="M 243.414062 178.558594 L 270.484375 178.558594 L 270.484375 205.625 L 243.414062 205.625 Z M 243.414062 178.558594 " fill-opacity="1" fill-rule="nonzero"/><path fill="#272727" d="M 280.257812 178.558594 L 307.324219 178.558594 L 307.324219 205.625 L 280.257812 205.625 Z M 280.257812 178.558594 " fill-opacity="1" fill-rule="nonzero"/><path fill="#272727" d="M 243.414062 215.402344 L 270.484375 215.402344 L 270.484375 242.46875 L 243.414062 242.46875 Z M 243.414062 215.402344 " fill-opacity="1" fill-rule="nonzero"/><path fill="#272727" d="M 280.257812 215.402344 L 307.324219 215.402344 L 307.324219 242.46875 L 280.257812 242.46875 Z M 280.257812 215.402344 " fill-opacity="1" fill-rule="nonzero"/><g clip-path="url(#6f96297505)"><path fill="#272727" d="M 456.296875 275.167969 L 3.761719 275.167969 L 3.761719 288.324219 L 524.84375 288.324219 L 524.84375 170.332031 Z M 456.296875 275.167969 " fill-opacity="1" fill-rule="nonzero"/></g><g clip-path="url(#8491268a71)"><path stroke-linecap="butt" transform="matrix(0.749351, 0, 0, 0.749351, 3.965375, 269.391738)" fill="none" stroke-linejoin="miter" d="M -0.000708738 4.502411 L 695.012028 4.502411 " stroke="#272727" stroke-width="9" stroke-opacity="1" stroke-miterlimit="4"/></g></svg>