<svg xmlns="http://www.w3.org/2000/svg" xmlns:xlink="http://www.w3.org/1999/xlink" width="747" zoomAndPan="magnify" viewBox="0 0 560.25 325.499995" height="434" preserveAspectRatio="xMidYMid meet" version="1.0"><defs><g/><clipPath id="8c0ac09aaf"><path d="M 20 170 L 541.519531 170 L 541.519531 288.308594 L 20 288.308594 Z M 20 170 " clip-rule="nonzero"/></clipPath></defs><path fill="#e32128" d="M 530.171875 165.773438 L 515.332031 188.394531 L 292.273438 33.148438 L 146.796875 134.410156 L 131.949219 111.78125 L 292.273438 0.195312 Z M 530.171875 165.773438 " fill-opacity="1" fill-rule="nonzero"/><path fill="#e32128" d="M 508.800781 198.359375 L 493.957031 220.980469 L 292.28125 80.605469 L 168.164062 166.988281 L 153.324219 144.367188 L 292.28125 47.652344 Z M 508.800781 198.359375 " fill-opacity="1" fill-rule="nonzero"/><path fill="#e32128" d="M 487.425781 230.9375 L 472.585938 253.570312 L 292.28125 128.070312 L 189.542969 199.574219 L 174.703125 176.953125 L 292.28125 95.113281 Z M 487.425781 230.9375 " fill-opacity="1" fill-rule="nonzero"/><path fill="#242424" d="M 74.019531 246.132812 C 93.726562 233.199219 98.507812 218.25 121.761719 201.410156 L 143.117188 233.960938 L 181.292969 208.921875 L 120.753906 116.625 L 82.578125 141.667969 L 103.925781 174.21875 C 79.21875 188.855469 63.605469 187.277344 43.890625 200.199219 C 27.082031 211.230469 17.367188 240.292969 22.019531 247.390625 C 26.675781 254.492188 57.203125 257.160156 74.019531 246.132812 Z M 38.945312 223.648438 C 43.828125 220.449219 50.382812 221.808594 53.582031 226.691406 C 56.785156 231.570312 55.421875 238.128906 50.539062 241.328125 C 45.65625 244.53125 39.105469 243.164062 35.902344 238.289062 C 32.703125 233.402344 34.0625 226.851562 38.945312 223.648438 Z M 38.945312 223.648438 " fill-opacity="1" fill-rule="nonzero"/><path fill="#242424" d="M 260.347656 178.441406 L 287.398438 178.441406 L 287.398438 205.488281 L 260.347656 205.488281 Z M 260.347656 178.441406 " fill-opacity="1" fill-rule="nonzero"/><path fill="#242424" d="M 297.167969 178.441406 L 324.214844 178.441406 L 324.214844 205.488281 L 297.167969 205.488281 Z M 297.167969 178.441406 " fill-opacity="1" fill-rule="nonzero"/><path fill="#242424" d="M 260.347656 215.257812 L 287.398438 215.257812 L 287.398438 242.304688 L 260.347656 242.304688 Z M 260.347656 215.257812 " fill-opacity="1" fill-rule="nonzero"/><path fill="#242424" d="M 297.167969 215.257812 L 324.214844 215.257812 L 324.214844 242.304688 L 297.167969 242.304688 Z M 297.167969 215.257812 " fill-opacity="1" fill-rule="nonzero"/><g clip-path="url(#8c0ac09aaf)"><path fill="#242424" d="M 473.089844 274.984375 L 20.855469 274.984375 L 20.855469 288.132812 L 541.589844 288.132812 L 541.589844 170.21875 Z M 473.089844 274.984375 " fill-opacity="1" fill-rule="nonzero"/></g><g fill="#272727" fill-opacity="1"><g transform="translate(18.358325, 312.288675)"><g><path d="M 8.484375 -15.796875 C 10.492188 -15.796875 12.070312 -15.3125 13.21875 -14.34375 C 14.363281 -13.382812 14.9375 -12.0625 14.9375 -10.375 C 14.9375 -8.695312 14.363281 -7.378906 13.21875 -6.421875 C 12.070312 -5.460938 10.492188 -4.984375 8.484375 -4.984375 L 4.234375 -4.984375 L 4.234375 0 L 2.578125 0 L 2.578125 -15.796875 Z M 8.4375 -6.453125 C 10 -6.453125 11.191406 -6.789062 12.015625 -7.46875 C 12.847656 -8.15625 13.265625 -9.125 13.265625 -10.375 C 13.265625 -11.65625 12.847656 -12.632812 12.015625 -13.3125 C 11.191406 -14 10 -14.34375 8.4375 -14.34375 L 4.234375 -14.34375 L 4.234375 -6.453125 Z M 8.4375 -6.453125 "/></g></g></g><g fill="#272727" fill-opacity="1"><g transform="translate(45.319361, 312.288675)"><g><path d="M 12.484375 -4.21875 L 3.671875 -4.21875 L 1.78125 0 L 0.046875 0 L 7.265625 -15.796875 L 8.90625 -15.796875 L 16.125 0 L 14.375 0 Z M 11.875 -5.578125 L 8.078125 -14.0625 L 4.28125 -5.578125 Z M 11.875 -5.578125 "/></g></g></g><g fill="#272727" fill-opacity="1"><g transform="translate(72.257829, 312.288675)"><g><path d="M 2.578125 -15.796875 L 4.234375 -15.796875 L 4.234375 0 L 2.578125 0 Z M 2.578125 -15.796875 "/></g></g></g><g fill="#272727" fill-opacity="1"><g transform="translate(89.834308, 312.288675)"><g><path d="M 15.765625 -15.796875 L 15.765625 0 L 14.390625 0 L 4.234375 -12.8125 L 4.234375 0 L 2.578125 0 L 2.578125 -15.796875 L 3.953125 -15.796875 L 14.125 -2.984375 L 14.125 -15.796875 Z M 15.765625 -15.796875 "/></g></g></g><g fill="#272727" fill-opacity="1"><g transform="translate(118.938446, 312.288675)"><g><path d="M 5.640625 -14.34375 L 0.09375 -14.34375 L 0.09375 -15.796875 L 12.859375 -15.796875 L 12.859375 -14.34375 L 7.3125 -14.34375 L 7.3125 0 L 5.640625 0 Z M 5.640625 -14.34375 "/></g></g></g><g fill="#272727" fill-opacity="1"><g transform="translate(142.650971, 312.288675)"><g><path d="M 13.734375 -1.4375 L 13.734375 0 L 2.578125 0 L 2.578125 -15.796875 L 13.40625 -15.796875 L 13.40625 -14.34375 L 4.234375 -14.34375 L 4.234375 -8.734375 L 12.40625 -8.734375 L 12.40625 -7.3125 L 4.234375 -7.3125 L 4.234375 -1.4375 Z M 13.734375 -1.4375 "/></g></g></g><g fill="#272727" fill-opacity="1"><g transform="translate(168.506611, 312.288675)"><g><path d="M 13.359375 0 L 9.75 -5.078125 C 9.34375 -5.035156 8.921875 -5.015625 8.484375 -5.015625 L 4.234375 -5.015625 L 4.234375 0 L 2.578125 0 L 2.578125 -15.796875 L 8.484375 -15.796875 C 10.492188 -15.796875 12.070312 -15.3125 13.21875 -14.34375 C 14.363281 -13.382812 14.9375 -12.0625 14.9375 -10.375 C 14.9375 -9.144531 14.625 -8.101562 14 -7.25 C 13.375 -6.40625 12.484375 -5.796875 11.328125 -5.421875 L 15.1875 0 Z M 8.4375 -6.4375 C 10 -6.4375 11.191406 -6.78125 12.015625 -7.46875 C 12.847656 -8.15625 13.265625 -9.125 13.265625 -10.375 C 13.265625 -11.65625 12.847656 -12.632812 12.015625 -13.3125 C 11.191406 -14 10 -14.34375 8.4375 -14.34375 L 4.234375 -14.34375 L 4.234375 -6.4375 Z M 8.4375 -6.4375 "/></g></g></g><g fill="#272727" fill-opacity="1"><g transform="translate(195.580435, 312.288675)"><g><path d="M 6.921875 0.140625 C 5.753906 0.140625 4.628906 -0.046875 3.546875 -0.421875 C 2.472656 -0.804688 1.644531 -1.304688 1.0625 -1.921875 L 1.71875 -3.203125 C 2.289062 -2.628906 3.050781 -2.164062 4 -1.8125 C 4.945312 -1.457031 5.921875 -1.28125 6.921875 -1.28125 C 8.335938 -1.28125 9.398438 -1.539062 10.109375 -2.0625 C 10.816406 -2.582031 11.171875 -3.253906 11.171875 -4.078125 C 11.171875 -4.710938 10.976562 -5.21875 10.59375 -5.59375 C 10.207031 -5.96875 9.734375 -6.253906 9.171875 -6.453125 C 8.617188 -6.660156 7.847656 -6.882812 6.859375 -7.125 C 5.671875 -7.425781 4.722656 -7.71875 4.015625 -8 C 3.304688 -8.28125 2.695312 -8.703125 2.1875 -9.265625 C 1.6875 -9.835938 1.4375 -10.613281 1.4375 -11.59375 C 1.4375 -12.394531 1.644531 -13.117188 2.0625 -13.765625 C 2.488281 -14.421875 3.140625 -14.941406 4.015625 -15.328125 C 4.890625 -15.722656 5.972656 -15.921875 7.265625 -15.921875 C 8.171875 -15.921875 9.054688 -15.796875 9.921875 -15.546875 C 10.785156 -15.304688 11.53125 -14.96875 12.15625 -14.53125 L 11.59375 -13.203125 C 10.9375 -13.640625 10.226562 -13.960938 9.46875 -14.171875 C 8.71875 -14.390625 7.984375 -14.5 7.265625 -14.5 C 5.878906 -14.5 4.835938 -14.234375 4.140625 -13.703125 C 3.441406 -13.171875 3.09375 -12.484375 3.09375 -11.640625 C 3.09375 -11.003906 3.28125 -10.492188 3.65625 -10.109375 C 4.039062 -9.734375 4.523438 -9.441406 5.109375 -9.234375 C 5.691406 -9.035156 6.472656 -8.816406 7.453125 -8.578125 C 8.609375 -8.285156 9.539062 -8 10.25 -7.71875 C 10.96875 -7.445312 11.570312 -7.03125 12.0625 -6.46875 C 12.5625 -5.90625 12.8125 -5.140625 12.8125 -4.171875 C 12.8125 -3.378906 12.597656 -2.65625 12.171875 -2 C 11.742188 -1.34375 11.082031 -0.820312 10.1875 -0.4375 C 9.300781 -0.0507812 8.210938 0.140625 6.921875 0.140625 Z M 6.921875 0.140625 "/></g></g></g><g fill="#272727" fill-opacity="1"><g transform="translate(220.217893, 312.288675)"><g/></g></g><g fill="#272727" fill-opacity="1"><g transform="translate(236.892024, 312.288675)"><g><path d="M 13.875 0.25 L 11.6875 -2.015625 C 10.34375 -0.578125 8.582031 0.140625 6.40625 0.140625 C 5.382812 0.140625 4.46875 -0.0234375 3.65625 -0.359375 C 2.851562 -0.703125 2.226562 -1.175781 1.78125 -1.78125 C 1.332031 -2.394531 1.109375 -3.09375 1.109375 -3.875 C 1.109375 -4.820312 1.40625 -5.671875 2 -6.421875 C 2.601562 -7.179688 3.628906 -7.972656 5.078125 -8.796875 C 4.328125 -9.578125 3.804688 -10.242188 3.515625 -10.796875 C 3.234375 -11.347656 3.09375 -11.929688 3.09375 -12.546875 C 3.09375 -13.554688 3.453125 -14.367188 4.171875 -14.984375 C 4.890625 -15.597656 5.859375 -15.90625 7.078125 -15.90625 C 8.210938 -15.90625 9.109375 -15.625 9.765625 -15.0625 C 10.429688 -14.507812 10.765625 -13.742188 10.765625 -12.765625 C 10.765625 -11.984375 10.5 -11.28125 9.96875 -10.65625 C 9.445312 -10.03125 8.539062 -9.34375 7.25 -8.59375 L 11.578125 -4.125 C 12.054688 -4.988281 12.410156 -6.003906 12.640625 -7.171875 L 13.9375 -6.765625 C 13.65625 -5.347656 13.191406 -4.140625 12.546875 -3.140625 L 14.796875 -0.8125 Z M 7.078125 -14.703125 C 6.296875 -14.703125 5.679688 -14.503906 5.234375 -14.109375 C 4.796875 -13.722656 4.578125 -13.207031 4.578125 -12.5625 C 4.578125 -12.101562 4.695312 -11.660156 4.9375 -11.234375 C 5.175781 -10.816406 5.648438 -10.242188 6.359375 -9.515625 C 7.503906 -10.179688 8.296875 -10.742188 8.734375 -11.203125 C 9.171875 -11.671875 9.390625 -12.1875 9.390625 -12.75 C 9.390625 -13.351562 9.1875 -13.828125 8.78125 -14.171875 C 8.375 -14.523438 7.804688 -14.703125 7.078125 -14.703125 Z M 6.5 -1.203125 C 8.238281 -1.203125 9.648438 -1.796875 10.734375 -2.984375 L 5.984375 -7.875 C 4.734375 -7.164062 3.867188 -6.523438 3.390625 -5.953125 C 2.921875 -5.378906 2.6875 -4.738281 2.6875 -4.03125 C 2.6875 -3.175781 3.035156 -2.488281 3.734375 -1.96875 C 4.429688 -1.457031 5.351562 -1.203125 6.5 -1.203125 Z M 6.5 -1.203125 "/></g></g></g><g fill="#272727" fill-opacity="1"><g transform="translate(262.747677, 312.288675)"><g/></g></g><g fill="#272727" fill-opacity="1"><g transform="translate(279.421808, 312.288675)"><g><path d="M 13.359375 0 L 9.75 -5.078125 C 9.34375 -5.035156 8.921875 -5.015625 8.484375 -5.015625 L 4.234375 -5.015625 L 4.234375 0 L 2.578125 0 L 2.578125 -15.796875 L 8.484375 -15.796875 C 10.492188 -15.796875 12.070312 -15.3125 13.21875 -14.34375 C 14.363281 -13.382812 14.9375 -12.0625 14.9375 -10.375 C 14.9375 -9.144531 14.625 -8.101562 14 -7.25 C 13.375 -6.40625 12.484375 -5.796875 11.328125 -5.421875 L 15.1875 0 Z M 8.4375 -6.4375 C 10 -6.4375 11.191406 -6.78125 12.015625 -7.46875 C 12.847656 -8.15625 13.265625 -9.125 13.265625 -10.375 C 13.265625 -11.65625 12.847656 -12.632812 12.015625 -13.3125 C 11.191406 -14 10 -14.34375 8.4375 -14.34375 L 4.234375 -14.34375 L 4.234375 -6.4375 Z M 8.4375 -6.4375 "/></g></g></g><g fill="#272727" fill-opacity="1"><g transform="translate(306.495643, 312.288675)"><g><path d="M 13.734375 -1.4375 L 13.734375 0 L 2.578125 0 L 2.578125 -15.796875 L 13.40625 -15.796875 L 13.40625 -14.34375 L 4.234375 -14.34375 L 4.234375 -8.734375 L 12.40625 -8.734375 L 12.40625 -7.3125 L 4.234375 -7.3125 L 4.234375 -1.4375 Z M 13.734375 -1.4375 "/></g></g></g><g fill="#272727" fill-opacity="1"><g transform="translate(332.351296, 312.288675)"><g><path d="M 18.96875 -15.796875 L 18.96875 0 L 17.375 0 L 17.375 -12.640625 L 11.171875 -2.015625 L 10.375 -2.015625 L 4.171875 -12.5625 L 4.171875 0 L 2.578125 0 L 2.578125 -15.796875 L 3.953125 -15.796875 L 10.8125 -4.078125 L 17.59375 -15.796875 Z M 18.96875 -15.796875 "/></g></g></g><g fill="#272727" fill-opacity="1"><g transform="translate(364.658829, 312.288675)"><g><path d="M 9.46875 0.140625 C 7.90625 0.140625 6.488281 -0.207031 5.21875 -0.90625 C 3.945312 -1.613281 2.953125 -2.578125 2.234375 -3.796875 C 1.523438 -5.015625 1.171875 -6.378906 1.171875 -7.890625 C 1.171875 -9.410156 1.523438 -10.78125 2.234375 -12 C 2.953125 -13.21875 3.945312 -14.175781 5.21875 -14.875 C 6.488281 -15.570312 7.90625 -15.921875 9.46875 -15.921875 C 11.039062 -15.921875 12.453125 -15.578125 13.703125 -14.890625 C 14.960938 -14.203125 15.953125 -13.242188 16.671875 -12.015625 C 17.390625 -10.785156 17.75 -9.410156 17.75 -7.890625 C 17.75 -6.378906 17.390625 -5.007812 16.671875 -3.78125 C 15.953125 -2.550781 14.960938 -1.585938 13.703125 -0.890625 C 12.453125 -0.203125 11.039062 0.140625 9.46875 0.140625 Z M 9.46875 -1.359375 C 10.71875 -1.359375 11.847656 -1.640625 12.859375 -2.203125 C 13.867188 -2.765625 14.660156 -3.546875 15.234375 -4.546875 C 15.804688 -5.546875 16.09375 -6.660156 16.09375 -7.890625 C 16.09375 -9.128906 15.804688 -10.25 15.234375 -11.25 C 14.660156 -12.25 13.867188 -13.03125 12.859375 -13.59375 C 11.847656 -14.15625 10.71875 -14.4375 9.46875 -14.4375 C 8.226562 -14.4375 7.097656 -14.15625 6.078125 -13.59375 C 5.066406 -13.03125 4.269531 -12.25 3.6875 -11.25 C 3.113281 -10.25 2.828125 -9.128906 2.828125 -7.890625 C 2.828125 -6.660156 3.113281 -5.546875 3.6875 -4.546875 C 4.269531 -3.546875 5.066406 -2.765625 6.078125 -2.203125 C 7.097656 -1.640625 8.226562 -1.359375 9.46875 -1.359375 Z M 9.46875 -1.359375 "/></g></g></g><g fill="#272727" fill-opacity="1"><g transform="translate(394.349501, 312.288675)"><g><path d="M 2.578125 -15.796875 L 9 -15.796875 C 10.664062 -15.796875 12.140625 -15.457031 13.421875 -14.78125 C 14.703125 -14.113281 15.695312 -13.179688 16.40625 -11.984375 C 17.113281 -10.796875 17.46875 -9.429688 17.46875 -7.890625 C 17.46875 -6.359375 17.113281 -4.992188 16.40625 -3.796875 C 15.695312 -2.609375 14.703125 -1.675781 13.421875 -1 C 12.140625 -0.332031 10.664062 0 9 0 L 2.578125 0 Z M 8.90625 -1.4375 C 10.289062 -1.4375 11.503906 -1.710938 12.546875 -2.265625 C 13.585938 -2.816406 14.390625 -3.578125 14.953125 -4.546875 C 15.523438 -5.515625 15.8125 -6.628906 15.8125 -7.890625 C 15.8125 -9.160156 15.523438 -10.28125 14.953125 -11.25 C 14.390625 -12.21875 13.585938 -12.972656 12.546875 -13.515625 C 11.503906 -14.066406 10.289062 -14.34375 8.90625 -14.34375 L 4.234375 -14.34375 L 4.234375 -1.4375 Z M 8.90625 -1.4375 "/></g></g></g><g fill="#272727" fill-opacity="1"><g transform="translate(423.746923, 312.288675)"><g><path d="M 13.734375 -1.4375 L 13.734375 0 L 2.578125 0 L 2.578125 -15.796875 L 13.40625 -15.796875 L 13.40625 -14.34375 L 4.234375 -14.34375 L 4.234375 -8.734375 L 12.40625 -8.734375 L 12.40625 -7.3125 L 4.234375 -7.3125 L 4.234375 -1.4375 Z M 13.734375 -1.4375 "/></g></g></g><g fill="#272727" fill-opacity="1"><g transform="translate(449.602576, 312.288675)"><g><path d="M 2.578125 -15.796875 L 4.234375 -15.796875 L 4.234375 -1.4375 L 13.09375 -1.4375 L 13.09375 0 L 2.578125 0 Z M 2.578125 -15.796875 "/></g></g></g><g fill="#272727" fill-opacity="1"><g transform="translate(473.653475, 312.288675)"><g><path d="M 13.734375 -1.4375 L 13.734375 0 L 2.578125 0 L 2.578125 -15.796875 L 13.40625 -15.796875 L 13.40625 -14.34375 L 4.234375 -14.34375 L 4.234375 -8.734375 L 12.40625 -8.734375 L 12.40625 -7.3125 L 4.234375 -7.3125 L 4.234375 -1.4375 Z M 13.734375 -1.4375 "/></g></g></g><g fill="#272727" fill-opacity="1"><g transform="translate(499.509127, 312.288675)"><g><path d="M 13.359375 0 L 9.75 -5.078125 C 9.34375 -5.035156 8.921875 -5.015625 8.484375 -5.015625 L 4.234375 -5.015625 L 4.234375 0 L 2.578125 0 L 2.578125 -15.796875 L 8.484375 -15.796875 C 10.492188 -15.796875 12.070312 -15.3125 13.21875 -14.34375 C 14.363281 -13.382812 14.9375 -12.0625 14.9375 -10.375 C 14.9375 -9.144531 14.625 -8.101562 14 -7.25 C 13.375 -6.40625 12.484375 -5.796875 11.328125 -5.421875 L 15.1875 0 Z M 8.4375 -6.4375 C 10 -6.4375 11.191406 -6.78125 12.015625 -7.46875 C 12.847656 -8.15625 13.265625 -9.125 13.265625 -10.375 C 13.265625 -11.65625 12.847656 -12.632812 12.015625 -13.3125 C 11.191406 -14 10 -14.34375 8.4375 -14.34375 L 4.234375 -14.34375 L 4.234375 -6.4375 Z M 8.4375 -6.4375 "/></g></g></g><g fill="#272727" fill-opacity="1"><g transform="translate(526.58294, 312.288675)"><g><path d="M 6.921875 0.140625 C 5.753906 0.140625 4.628906 -0.046875 3.546875 -0.421875 C 2.472656 -0.804688 1.644531 -1.304688 1.0625 -1.921875 L 1.71875 -3.203125 C 2.289062 -2.628906 3.050781 -2.164062 4 -1.8125 C 4.945312 -1.457031 5.921875 -1.28125 6.921875 -1.28125 C 8.335938 -1.28125 9.398438 -1.539062 10.109375 -2.0625 C 10.816406 -2.582031 11.171875 -3.253906 11.171875 -4.078125 C 11.171875 -4.710938 10.976562 -5.21875 10.59375 -5.59375 C 10.207031 -5.96875 9.734375 -6.253906 9.171875 -6.453125 C 8.617188 -6.660156 7.847656 -6.882812 6.859375 -7.125 C 5.671875 -7.425781 4.722656 -7.71875 4.015625 -8 C 3.304688 -8.28125 2.695312 -8.703125 2.1875 -9.265625 C 1.6875 -9.835938 1.4375 -10.613281 1.4375 -11.59375 C 1.4375 -12.394531 1.644531 -13.117188 2.0625 -13.765625 C 2.488281 -14.421875 3.140625 -14.941406 4.015625 -15.328125 C 4.890625 -15.722656 5.972656 -15.921875 7.265625 -15.921875 C 8.171875 -15.921875 9.054688 -15.796875 9.921875 -15.546875 C 10.785156 -15.304688 11.53125 -14.96875 12.15625 -14.53125 L 11.59375 -13.203125 C 10.9375 -13.640625 10.226562 -13.960938 9.46875 -14.171875 C 8.71875 -14.390625 7.984375 -14.5 7.265625 -14.5 C 5.878906 -14.5 4.835938 -14.234375 4.140625 -13.703125 C 3.441406 -13.171875 3.09375 -12.484375 3.09375 -11.640625 C 3.09375 -11.003906 3.28125 -10.492188 3.65625 -10.109375 C 4.039062 -9.734375 4.523438 -9.441406 5.109375 -9.234375 C 5.691406 -9.035156 6.472656 -8.816406 7.453125 -8.578125 C 8.609375 -8.285156 9.539062 -8 10.25 -7.71875 C 10.96875 -7.445312 11.570312 -7.03125 12.0625 -6.46875 C 12.5625 -5.90625 12.8125 -5.140625 12.8125 -4.171875 C 12.8125 -3.378906 12.597656 -2.65625 12.171875 -2 C 11.742188 -1.34375 11.082031 -0.820312 10.1875 -0.4375 C 9.300781 -0.0507812 8.210938 0.140625 6.921875 0.140625 Z M 6.921875 0.140625 "/></g></g></g></svg>